<?xml version="1.0" encoding="utf-8"?>
<svg viewBox="0 0 200 44" xmlns="http://www.w3.org/2000/svg"
  xmlns:xlink="http://www.w3.org/1999/xlink">
  <style>:root>svg{display:none}:root>svg:target{display:block}</style>
  <svg viewBox="0 0 24 24" id="arrow" xmlns="http://www.w3.org/2000/svg">
    <g clip-path="url(#aa)">
      <path
        d="M13.121 6.293a1 1 0 0 0 0 1.414L16.413 11 6 11.007a1 1 0 0 0 0 2L16.414 13l-3.293 3.293a1 1 0 1 0 1.414 1.414l3.586-3.585a3 3 0 0 0 0-4.243l-3.586-3.586a1 1 0 0 0-1.414 0z" />
    </g>
  </svg>
  <svg viewBox="0 0 44 44" id="asia" xmlns="http://www.w3.org/2000/svg">
    <g clip-path="url(#ba)">
      <g clip-path="url(#bb)">
        <path
          d="M15.132 13.567h2.124a1 1 0 0 1 1 1v1.465a.644.644 0 1 0 1.29 0v-1.465a2.292 2.292 0 0 0-2.29-2.29h-2.124a.984.984 0 0 1 0-1.965h4.711a2.275 2.275 0 0 0 2.272-2.273 2.275 2.275 0 0 0-2.272-2.272h-3.77a.645.645 0 1 0 0 1.29h3.77a.984.984 0 0 1 0 1.966h-4.711a2.275 2.275 0 0 0-2.273 2.272 2.275 2.275 0 0 0 2.273 2.272zm-7.743 4.326h2.108c.544 0 .987.442.987.987v1.454a.644.644 0 1 0 1.29 0V18.88a2.279 2.279 0 0 0-2.277-2.276H7.39a.972.972 0 0 1 0-1.942h2.465a.645.645 0 0 0 0-1.289H7.389a2.262 2.262 0 0 0-2.26 2.26 2.262 2.262 0 0 0 2.26 2.26z" />
        <path
          d="M26.297 26.168a.645.645 0 1 1-1.29 0 .645.645 0 0 1 1.29 0zm3.18 1.461a.645.645 0 1 1-1.29 0 .645.645 0 0 1 1.29 0zm1.89 2.234a.645.645 0 1 1-1.289 0 .645.645 0 0 1 1.29 0zm-2.664-5.242a.644.644 0 1 1-1.289 0 .644.644 0 0 1 1.29 0zm-2.148 5.672a.645.645 0 1 1-1.29 0 .645.645 0 0 1 1.29 0z"
          fill-rule="evenodd" />
        <path
          d="M42.911 22.811h-1.828l.904-1.868A2.507 2.507 0 0 0 44 18.49a2.507 2.507 0 0 0-2.102-2.47c-1.315-2.37-3.885-4.149-7.001-4.859v-.05a.644.644 0 0 0-1.264-.175 13.78 13.78 0 0 0-1.197-.1.644.644 0 0 0-1.163 0 14.2 14.2 0 0 0-1.197.1.644.644 0 0 0-1.264.176v.049c-3.116.71-5.686 2.49-7.001 4.859a2.506 2.506 0 0 0-2.093 2.686c-2.975.276-5.649 1.52-7.655 3.385h-4.05a.908.908 0 0 0-.69.318H5.43a2.118 2.118 0 0 0-1.957-1.337 2.106 2.106 0 0 0-2.082 2.397 2.107 2.107 0 0 0-1.066 3.104 2.106 2.106 0 0 0 1.778 3.229c.878 0 1.648-.554 1.958-1.337h1.704a.91.91 0 0 0 .586.623l2.02.686a10.903 10.903 0 0 0-.002 1.223c-.316.076-.61.207-.873.383a2.7 2.7 0 0 0-1.51-.46 2.721 2.721 0 0 0-2.717 2.719l.002.068h-.754c-.426 0-.803.24-.985.624-.181.385-.126.828.144 1.157l1.934 2.35c.207.251.514.396.84.396h27.26a.644.644 0 1 0 0-1.29H4.545l-1.604-1.948h39.544l-1.603 1.949h-6.164a.645.645 0 1 0 0 1.289h6.258c.327 0 .633-.145.84-.397l1.934-2.35a1.08 1.08 0 0 0 .144-1.156 1.079 1.079 0 0 0-.984-.624h-.638a5.41 5.41 0 0 0 .64-3.671.645.645 0 0 0-.52-.52 5.409 5.409 0 0 0-5.008 1.731c-.37-.2-.79-.316-1.237-.324v-1.227h.688a1.98 1.98 0 0 0 1.977-1.977v-.865h4.1c.6 0 1.088-.488 1.088-1.088V23.9c0-.6-.488-1.089-1.089-1.089zM6.291 33.706H4.56l-.002-.068a1.43 1.43 0 0 1 2.053-1.284c-.206.383-.323.82-.323 1.284 0 .023.002.046.003.068zm32.225-1.784a4.116 4.116 0 0 1 3.184-1.195 4.118 4.118 0 0 1-1.005 2.98h-1.063l.881-.881a.644.644 0 1 0-.911-.912l-.914.914a2.71 2.71 0 0 0-.348-.718c.057-.064.115-.127.176-.188zm-13.013-17.98a10.717 10.717 0 0 1 3.309-1.452v.663a.645.645 0 1 0 1.29 0v-.918c.364-.052.735-.087 1.108-.106v1.024a.645.645 0 1 0 1.289 0V12.13c.373.02.743.054 1.109.106v.918a.644.644 0 1 0 1.289 0v-.663c1.206.309 2.333.799 3.309 1.452.95.637 1.724 1.406 2.288 2.256a2.526 2.526 0 0 0-.604.375 2.506 2.506 0 0 0-1.607-.587c-.595 0-1.163.215-1.607.587a2.506 2.506 0 0 0-1.607-.587c-.595 0-1.163.215-1.607.587a2.506 2.506 0 0 0-1.608-.587 2.51 2.51 0 0 0-1.607.587 2.506 2.506 0 0 0-1.607-.587 2.51 2.51 0 0 0-1.607.587 2.506 2.506 0 0 0-1.607-.587 2.51 2.51 0 0 0-1.607.587 2.522 2.522 0 0 0-.605-.375c.565-.85 1.339-1.619 2.29-2.256zm-3.291 3.333c.43 0 .832.233 1.05.607a.645.645 0 0 0 1.114 0 1.22 1.22 0 0 1 1.05-.607c.43 0 .832.233 1.05.607a.644.644 0 0 0 1.115 0 1.219 1.219 0 0 1 1.05-.607c.43 0 .832.233 1.049.607a.644.644 0 0 0 1.115 0 1.22 1.22 0 0 1 1.05-.607c.43 0 .832.233 1.049.607a.644.644 0 0 0 1.115 0 1.22 1.22 0 0 1 1.05-.607c.43 0 .832.233 1.05.607a.644.644 0 0 0 1.114 0 1.22 1.22 0 0 1 1.05-.607c.43 0 .832.233 1.05.607a.644.644 0 0 0 1.114 0c.218-.374.62-.607 1.05-.607a1.215 1.215 0 0 1 0 2.427 1.22 1.22 0 0 1-1.05-.606.644.644 0 0 0-1.114 0c-.218.374-.62.607-1.05.607a1.22 1.22 0 0 1-1.05-.607.644.644 0 0 0-1.115 0 1.22 1.22 0 0 1-1.05.607c-.43 0-.832-.233-1.049-.607a.644.644 0 0 0-1.115 0 1.22 1.22 0 0 1-1.05.607c-.43 0-.832-.233-1.05-.607a.644.644 0 0 0-1.114 0c-.218.374-.62.607-1.05.607-.43 0-.832-.233-1.05-.607a.644.644 0 0 0-1.114 0 1.22 1.22 0 0 1-.54.492 13.368 13.368 0 0 0-4.927-.942 1.215 1.215 0 0 1 1.202-1.37zM8.392 23.38h2.472c-.255.316-.493.644-.712.983h-1.76v-.983zm-2.66 3.796H3.558a.645.645 0 0 0-.643.59.818.818 0 0 1-.81.747.815.815 0 0 1-.519-1.443.645.645 0 0 0 0-.993.813.813 0 1 1 1.33-.697.645.645 0 0 0 .642.59h2.176v1.206zm.221-2.494H4.061a2.128 2.128 0 0 0-1.36-1.248.815.815 0 0 1 .772-1.073c.42 0 .776.328.811.746a.644.644 0 0 0 .642.591h2.177v.666h-.46a.91.91 0 0 0-.69.318zm4.48 9.025H7.58a1.43 1.43 0 0 1 1.427-1.497 1.43 1.43 0 0 1 1.428 1.429l-.002.068zm19.879 0h-2.244l-.002-.068a1.43 1.43 0 0 1 2.439-1.01 2.703 2.703 0 0 0-.196 1.01c0 .023.002.046.003.068zm-.817-2.786a2.721 2.721 0 0 0-2.719 2.718c0 .023.002.046.003.068H11.722l.002-.068c0-1.273-.88-2.344-2.063-2.638a9.726 9.726 0 0 1-.016-.794l6.592 2.238a4.113 4.113 0 0 0 3.753-.556 4.106 4.106 0 0 0 1.732-3.375c0-.484-.083-.96-.247-1.412a.645.645 0 0 0-1.212.438c.113.312.17.64.17.974a2.83 2.83 0 0 1-1.195 2.327 2.83 2.83 0 0 1-2.587.383l-9.63-3.27v-2.301h10.55c.324 0 .642.054.947.16a.644.644 0 1 0 .427-1.216 4.144 4.144 0 0 0-1.373-.234h-5.845c2.056-2.676 5.438-4.427 9.256-4.427 6.253 0 11.34 4.695 11.34 10.467 0 .206-.006.412-.02.616a2.71 2.71 0 0 0-1.042.557 2.705 2.705 0 0 0-1.766-.655zm4.959 2.786h-2.853a1.43 1.43 0 0 1 1.427-1.497 1.43 1.43 0 0 1 1.428 1.429c0 .023 0 .046-.002.068zm.404-2.486c-.102.053-.202.11-.297.175a2.704 2.704 0 0 0-.964-.413c.01-.193.016-.386.016-.58 0-.237-.01-.473-.025-.707h1.27v1.525zm2.665 2.418c0 .023-.002.046-.003.068h-1.777l.002-.068a2.7 2.7 0 0 0-.313-1.266 1.43 1.43 0 0 1 2.09 1.266zm0-5.92c0 .38-.309.688-.688.688h-3.407a11 11 0 0 0-.404-1.553h4.499v.865zm5.188-2.154H32.493a11.512 11.512 0 0 0-.853-1.464h2.735a.645.645 0 0 0 0-1.289h-3.756a12.404 12.404 0 0 0-2.077-1.822 2.507 2.507 0 0 0 1.705-.585 2.506 2.506 0 0 0 1.607.588c.595 0 1.163-.215 1.608-.588a2.506 2.506 0 0 0 1.607.588c.594 0 1.162-.215 1.607-.588a2.506 2.506 0 0 0 1.607.588c.594 0 1.162-.215 1.607-.588.215.18.459.323.72.423l-.96 1.984h-2.267a.645.645 0 0 0 0 1.29h5.328v1.463z" />
      </g>
    </g>
  </svg>
  <svg viewBox="0 0 44 38.672" id="burger" xmlns="http://www.w3.org/2000/svg">
    <path
      d="M44 19.336c0-1.69-1.09-3.128-2.602-3.653-.232-5.241-2.189-9.263-5.825-11.966C32.254 1.251 27.688 0 22 0 16.312 0 11.746 1.25 8.427 3.717 4.791 6.42 2.834 10.442 2.602 15.683A3.873 3.873 0 0 0 0 19.336c0 .99.374 1.893.988 2.578A3.851 3.851 0 0 0 0 24.492c0 1.7 1.103 3.146 2.63 3.663.553 5.89 5.56 10.517 11.636 10.517h15.468c6.076 0 11.084-4.627 11.636-10.517A3.873 3.873 0 0 0 44 24.492a3.85 3.85 0 0 0-.988-2.578A3.851 3.851 0 0 0 44 19.336zM22 2.578c7.393 0 16.151 2.28 16.803 12.89H5.197C5.849 4.859 14.607 2.579 22 2.579zM3.867 18.047h36.266c.71 0 1.289.578 1.289 1.289 0 .71-.578 1.289-1.29 1.289H3.868a1.29 1.29 0 0 1-1.289-1.29c0-.71.578-1.288 1.29-1.288zm25.867 18.047H14.266c-4.581 0-8.383-3.368-9.016-7.735h1.195c.862 0 1.134.293 1.677.878.667.718 1.58 1.7 3.566 1.7 2 0 2.889-.992 3.538-1.718.513-.572.77-.86 1.618-.86.848 0 1.105.288 1.617.86.65.726 1.54 1.718 3.539 1.718 2 0 2.89-.992 3.538-1.718.513-.572.77-.86 1.618-.86.848 0 1.105.288 1.618.86.65.726 1.539 1.718 3.538 1.718 2 0 2.89-.992 3.539-1.718.513-.572.77-.86 1.618-.86h1.281c-.633 4.367-4.435 7.735-9.016 7.735zM40.133 25.78h-2.664c-2 0-2.89.993-3.539 1.719-.512.572-.77.86-1.617.86-.848 0-1.106-.288-1.618-.86-.65-.726-1.539-1.719-3.539-1.719s-2.889.993-3.538 1.719c-.513.572-.77.86-1.618.86-.848 0-1.105-.288-1.618-.86-.65-.726-1.538-1.719-3.538-1.719-2 0-2.89.993-3.539 1.719-.512.572-.77.86-1.617.86-.862 0-1.135-.294-1.677-.878-.667-.718-1.58-1.7-3.566-1.7H3.867a1.29 1.29 0 0 1-1.289-1.29c0-.71.578-1.289 1.29-1.289h36.265a1.29 1.29 0 0 1 0 2.578z" />
  </svg>
  <svg viewBox="0 0 24 24" id="calling" xmlns="http://www.w3.org/2000/svg">
    <path d="M0 0h24v24H0z" />
    <path
      d="M14.353 2.5a7.97 7.97 0 0 1 7.04 7.032m-7.04-3.489a4.426 4.426 0 0 1 3.5 3.5M18.465 14.385c2.449 2.448 3.857 2.938.754 6.04-.389.312-2.858 4.07-11.535-4.605C-.993 7.144 2.762 4.672 3.074 4.284c3.11-3.11 3.593-1.695 6.041.753 2.54 2.54-2.072 3.447 1.916 7.435 3.99 3.988 4.894-.625 7.434 1.913z" />
  </svg>
  <svg viewBox="0 0 20.001 19.333" id="cart" xmlns="http://www.w3.org/2000/svg">
    <path
      d="m.75.75 2.08.356.964 11.34c.077.926.86 1.637 1.8 1.634h10.909a1.794 1.794 0 0 0 1.785-1.528l.949-6.482a1.328 1.328 0 0 0-1.135-1.501c-.064-.01-14.937-.014-14.937-.014m8.961 3.653h2.773M5.699 18.044c0 .298-.243.54-.544.54a.541.541 0 0 1-.544-.54.54.54 0 0 1 .544-.538.54.54 0 0 1 .544.538zm11.281 0c0 .298-.244.54-.545.54a.541.541 0 0 1-.544-.54.54.54 0 0 1 .544-.538c.301 0 .545.242.545.538z" />
  </svg>
  <svg viewBox="0 0 34 33.605" id="delivery" xmlns="http://www.w3.org/2000/svg">
    <g clip-path="url(#fa)">
      <path
        d="m6.518 24.47.407.97c.288-.119.587-.206.893-.26l-.19-1.035c-.38.069-.753.177-1.11.324zm-2.791 2.605.956.458a4.323 4.323 0 0 1 1.46-1.676l-.6-.867a5.378 5.378 0 0 0-1.816 2.085z" />
      <path
        d="M32.938 26.78c0-.905-.337-1.777-.948-2.45l-.791.7c.314.346.529.769.623 1.225h-3.666a.536.536 0 0 0-.442.234l-1.967 2.916h-1.31V27.83a3.658 3.658 0 0 1 1.091-2.598 3.745 3.745 0 0 1 2.628-1.078h1.063c.522 0 1.033.152 1.468.438l.588-.875a3.723 3.723 0 0 0-1.525-.575v-1.613a.522.522 0 0 0-.156-.371.535.535 0 0 0-.375-.154 2.14 2.14 0 0 1-1.502-.616 2.09 2.09 0 0 1-.623-1.484v-2.1h1.593a.538.538 0 0 0 .376-.154.522.522 0 0 0 .156-.372v-3.675a.522.522 0 0 0-.156-.372.534.534 0 0 0-.375-.153h-.938c-.221 0-.442.03-.656.089v-.615a.522.522 0 0 0-.117-.328L25.24 9.077a1.82 1.82 0 0 0-.43-2.366 1.873 1.873 0 0 0-2.43.078 1.822 1.822 0 0 0-.274 2.388 1.86 1.86 0 0 0 1.06.74c.432.112.89.067 1.291-.126l1.575 1.946v.662l-2.335-.77a1.45 1.45 0 0 0-.476-.077h-4.382l-2.522-2.908A1.58 1.58 0 0 0 17 7.352v-.2l.769-.38a.53.53 0 0 0 .276-.336.518.518 0 0 0-.072-.426l-.872-1.293a.532.532 0 0 0 .309-.182.52.52 0 0 0 .121-.334c0-.835-.337-1.636-.934-2.226a3.21 3.21 0 0 0-2.253-.924c-1 0-1.927.284-2.616 1.036a3.122 3.122 0 0 0-.808 2.427l.113 1.124c.048.484.282.932.655 1.25v9.915c0 .37.098.732.285 1.05h-.817c-.18 0-.36.03-.531.09v-6.916c0-.417-.168-.818-.467-1.113a1.605 1.605 0 0 0-1.127-.462H2.656c-.422 0-.827.167-1.126.462a1.568 1.568 0 0 0-.468 1.113v2.626h1.063v-1.05h7.438v5.25H2.125v-3.15H1.062v4.287a1.049 1.049 0 0 0 .873 1.034l4.971.893v1.232a7.59 7.59 0 0 0-1.314.43H2.656a.534.534 0 0 0-.375.154.522.522 0 0 0-.156.371v2.493a7.392 7.392 0 0 0-1.063 3.808c0 .14.056.273.156.372.1.098.235.153.376.153h2.435a4.21 4.21 0 0 0 1.564 1.908 4.285 4.285 0 0 0 4.752 0 4.21 4.21 0 0 0 1.564-1.908h8.932a2.687 2.687 0 0 0 1.965-.859l.569-.618v1.477c0 .14.056.273.156.372.1.098.234.153.375.153h1.101a4.23 4.23 0 0 0 2.054 1.78 4.296 4.296 0 0 0 2.727.177 4.252 4.252 0 0 0 2.271-1.5 4.17 4.17 0 0 0 .705-3.745.523.523 0 0 0 .173-.387zM22.843 8.14a.78.78 0 0 1 .492-.728.806.806 0 0 1 .868.17.785.785 0 0 1 .173.859.803.803 0 0 1-1.3.255.784.784 0 0 1-.233-.557zm-7.6 18.64c-.52 0-1.02-.205-1.387-.569a1.93 1.93 0 0 1-.576-1.37c0-.516.132-.998.48-1.395.31-.353.737-.583 1.205-.65a2.376 2.376 0 0 0 1.454-.783c.374-.426.58-.97.58-1.534a.518.518 0 0 0-.156-.372 1.557 1.557 0 0 0 .065-1.203h1.443l-2.332 5.99a1.208 1.208 0 0 0-.082.453v1.433h-.694zM17 25.73h2.656a.535.535 0 0 1 .508.373.52.52 0 0 1-.213.588 1.074 1.074 0 0 1-.424.089H17v-1.05zm4.123-.092a1.582 1.582 0 0 0-.484-.623 1.606 1.606 0 0 0-.727-.315l2.2-5.235a3.03 3.03 0 0 0-.284-2.875 3.087 3.087 0 0 0-1.116-1 3.128 3.128 0 0 0-1.46-.362H17v-.833l.156.154a.531.531 0 0 0 .375.154h5.404a1.559 1.559 0 0 0 .201 1.435 1.589 1.589 0 0 0 1.302.665h.001a2.591 2.591 0 0 0-.533 1.575v4.074c0 .278-.112.545-.311.742l-2.472 2.444zm3.314-9.885a.535.535 0 0 1-.49-.324.52.52 0 0 1 .387-.716.537.537 0 0 1 .545.223.52.52 0 0 1-.066.663.535.535 0 0 1-.375.154zm3.72-2.625v2.625h-1.063v-2.462a1.41 1.41 0 0 1 .656-.163h.406zm-2.126 2.1a1.56 1.56 0 0 0-.673-1.286 1.603 1.603 0 0 0-1.452-.199v-.937l2.125.7v1.722zm-7.437-2.625h4.25v1.05H17.75l-3.032-2.997-.75.743 1.969 1.946v1.883H12.75V8.927h2.412l3.028 3.492a.532.532 0 0 0 .404.184zm-6.078-9.811c.485-.53 1.13-.691 1.828-.691.47 0 .928.155 1.3.44.373.286.64.685.758 1.135h-2.058a.534.534 0 0 0-.376.154.522.522 0 0 0-.155.371v1.247a.848.848 0 0 1-.24.586.868.868 0 0 1-1.482-.5l-.114-1.123a2.054 2.054 0 0 1 .539-1.62zm.433 4.56c.51 0 1-.201 1.361-.558.361-.357.564-.841.565-1.346v-.722h1.063a.52.52 0 0 0 .089.292l.728 1.08-.524.26a.529.529 0 0 0-.294.469v.525a.52.52 0 0 1-.155.37.535.535 0 0 1-.376.155H12.75V7.34a1.9 1.9 0 0 0 .2.01zm-.199 9.451v-.525h6.501c.335 0 .665.082.96.238.296.156.547.382.733.657a1.997 1.997 0 0 1 .187 1.889l-2.36 5.617h-1.529l2.379-6.112a.519.519 0 0 0-.249-.653.535.535 0 0 0-.247-.06h-5.313a1.07 1.07 0 0 1-.75-.308 1.045 1.045 0 0 1-.312-.743zm-1.594 2.1h4.25c.141 0 .276.056.376.154a.522.522 0 0 1-.376.897h-4.25a.535.535 0 0 1-.375-.154.522.522 0 0 1 .375-.896zm-9.031-7.35v-.526c0-.139.056-.272.156-.37a.535.535 0 0 1 .375-.155h6.375c.141 0 .276.056.376.154a.52.52 0 0 1 .155.371v.525H2.125zm0 7.35h7.438v1.05H7.485l-5.36-.963v-.086zm1.72 4.726c-.231.185-.45.384-.658.595v-.595h.657zm4.124 7.877a3.24 3.24 0 0 1-1.592-.426 3.192 3.192 0 0 1-1.168-1.15h1.356a2.136 2.136 0 0 0 2.808 0h1.356a3.192 3.192 0 0 1-1.169 1.15 3.24 3.24 0 0 1-1.591.426zm14.051-3.141a1.594 1.594 0 0 1-1.18.515H2.148a6.358 6.358 0 0 1 1.592-3.701 6.486 6.486 0 0 1 3.513-2.03 2.01 2.01 0 0 1 .418-.045h3.486v-1.05H7.97v-1.05h7.856a1.315 1.315 0 0 1-1.01.753c-.72.102-1.38.458-1.857 1-.514.586-.74 1.318-.74 2.083 0 .712.258 1.4.726 1.94H8.5v1.05h11.027a2.176 2.176 0 0 0 1.503-.615l3.316-3.278a2.1 2.1 0 0 0 .623-1.485v-4.074c0-.325.102-.643.293-.909.19-.266.459-.467.77-.576v2.01c0 .745.267 1.465.753 2.033.486.569 1.16.95 1.902 1.074v1.094c-.33 0-.667-.02-.995.023-.994.097-1.932.5-2.683 1.15a4.726 4.726 0 0 0-1.507 2.477l-1.482 1.61zm6.42-1.06h.027l.642.634a.588.588 0 0 1 .074.743.594.594 0 0 1-.612.25.598.598 0 0 1-.305-.16l-.489-.484.664-.983zm.247 4.2a3.202 3.202 0 0 1-2.422-1.105.528.528 0 0 0 .208-.178l.46-.683a2.137 2.137 0 0 0 2.382.823 2.124 2.124 0 0 0 1.083-.76 2.083 2.083 0 0 0 .129-2.297h1.166a3.119 3.119 0 0 1-.403 2.869 3.18 3.18 0 0 1-1.137.979 3.22 3.22 0 0 1-1.465.353z" />
      <path d="M3.188 13.652H4.25v3.15H3.187v-3.15z" fill-rule="evenodd" />
    </g>
  </svg>
  <svg viewBox="0 0 44 43.489" id="dish" xmlns="http://www.w3.org/2000/svg">
    <g clip-path="url(#ga)">
      <path
        d="m31.158 14.657-.47-1.531c-.599-1.74-2.51-2.671-4.27-2.08a3.347 3.347 0 0 0-2.105 2.08l-.47 1.531a8.508 8.508 0 0 0-.244 3.987 3.754 3.754 0 0 0 1.954 2.613l-.527 11.65c-.07.65.143 1.3.587 1.785a2.583 2.583 0 0 0 3.78 0 2.248 2.248 0 0 0 .587-1.736l-.53-11.7a3.753 3.753 0 0 0 1.95-2.612 8.507 8.507 0 0 0-.242-3.987zm-1.202 3.735a2.307 2.307 0 0 1-1.522 1.731.725.725 0 0 0-.474.711l.557 12.236a.833.833 0 0 1-.22.657 1.143 1.143 0 0 1-1.594 0 .864.864 0 0 1-.216-.705l.553-12.188a.725.725 0 0 0-.474-.71 2.307 2.307 0 0 1-1.522-1.732 7.069 7.069 0 0 1 .202-3.31l.47-1.532a1.908 1.908 0 0 1 3.568 0l.47 1.532a7.077 7.077 0 0 1 .202 3.31zM19.8 10.872a.73.73 0 0 0-.733.725v6.223l-1.986 1.963a.72.72 0 0 0-.214.548l.641 12.685a.981.981 0 0 1-.277.738c-.401.4-1.055.404-1.46.007l-.007-.007a.98.98 0 0 1-.277-.738l.646-12.685a.72.72 0 0 0-.214-.548l-1.986-1.963v-6.223a.73.73 0 0 0-.733-.725.73.73 0 0 0-.733.725v6.524c0 .192.077.376.214.512l1.97 1.948-.625 12.364c-.067 1.351.987 2.5 2.354 2.565 1.366.066 2.528-.976 2.594-2.326.004-.08.004-.16 0-.239l-.625-12.364 1.97-1.948a.72.72 0 0 0 .214-.512v-6.524a.73.73 0 0 0-.733-.725z" />
      <path
        d="M15.4 10.872a.73.73 0 0 0-.733.725v5.799c0 .4.328.724.733.724a.73.73 0 0 0 .733-.724v-5.799a.73.73 0 0 0-.733-.725zm2.2 0a.73.73 0 0 0-.733.725v5.799c0 .4.328.724.733.724a.73.73 0 0 0 .733-.724v-5.799a.73.73 0 0 0-.733-.725z" />
      <path
        d="M22 0C9.85 0 0 9.735 0 21.745c0 12.009 9.85 21.744 22 21.744s22-9.735 22-21.744C43.986 9.74 34.145.014 22 0zm0 42.04c-11.34 0-20.533-9.087-20.533-20.295C1.467 10.536 10.66 1.45 22 1.45c11.34 0 20.533 9.086 20.533 20.295C42.52 32.948 33.335 42.027 22 42.04z" />
      <path
        d="M24.38 35.351a.731.731 0 0 0-.829-.648h.003a13.618 13.618 0 0 1-3.108 0 .732.732 0 0 0-.814.635.727.727 0 0 0 .643.805 14.94 14.94 0 0 0 3.447 0 .727.727 0 0 0 .658-.792zm8.84-22.946a.74.74 0 0 0-1.033-.09l-.003.003a.72.72 0 0 0-.088 1.02 12.936 12.936 0 0 1-.778 17.648.72.72 0 0 0-.002 1.025.74.74 0 0 0 1.037.002 14.374 14.374 0 0 0 .867-19.608zM17.086 9.582l-.001-.001h-.003.004z" />
      <path
        d="M25.46 7.653a14.962 14.962 0 0 0-8.633.524.722.722 0 0 0 .258 1.404.744.744 0 0 0 .256-.047 13.47 13.47 0 0 1 7.773-.472.734.734 0 0 0 .886-.534.724.724 0 0 0-.54-.875zM12.65 30.95a12.887 12.887 0 0 1-3.85-9.205 12.85 12.85 0 0 1 2.523-7.675.72.72 0 0 0-.145-1.015.74.74 0 0 0-1.027.144l-.013.018a14.371 14.371 0 0 0 1.472 18.76.74.74 0 0 0 1.039 0 .72.72 0 0 0 0-1.027z" />
    </g>
  </svg>
  <svg viewBox="0 0 24 19.217" id="double-quotes" xmlns="http://www.w3.org/2000/svg">
    <path
      d="M5.217 9.565c1.276.116 2.32.609 3.13 1.479.812.87 1.218 1.97 1.218 3.304 0 1.45-.435 2.637-1.304 3.565-.87.87-1.971 1.304-3.304 1.304-1.508 0-2.725-.55-3.653-1.652C.434 16.464 0 14.754 0 12.435 0 7.97 1.478 4.116 4.435.87c.58-.58 1.246-.87 2-.87.637 0 1.188.232 1.652.696.464.405.696.898.696 1.478 0 .638-.232 1.188-.696 1.652-1.507 1.565-2.464 3.478-2.87 5.74zm14.435 0c1.275.116 2.319.609 3.13 1.479.812.87 1.218 1.97 1.218 3.304 0 1.45-.435 2.637-1.304 3.565-.87.87-1.971 1.304-3.305 1.304-1.507 0-2.724-.55-3.652-1.652-.87-1.101-1.304-2.811-1.304-5.13 0-4.464 1.478-8.319 4.435-11.565.58-.58 1.246-.87 2-.87.637 0 1.188.232 1.652.696.463.405.695.898.695 1.478 0 .638-.232 1.188-.695 1.652-1.507 1.565-2.464 3.478-2.87 5.74z" />
  </svg>
  <svg viewBox="0 0 9.977 20.526" id="facebook" xmlns="http://www.w3.org/2000/svg">
    <path
      d="M2.547 20.526v-9.631H0V7.427h2.547V4.465C2.547 2.137 4.05 0 7.517 0 8.922 0 9.96.135 9.96.135l-.082 3.238s-1.058-.01-2.213-.01c-1.25 0-1.45.576-1.45 1.532v2.532h3.763l-.164 3.468h-3.6v9.631H2.547z" />
  </svg>
  <svg viewBox="0 0 19.5 19.5" id="instagram" xmlns="http://www.w3.org/2000/svg">
    <path
      d="M9.748 6.499A3.258 3.258 0 0 0 6.496 9.75a3.258 3.258 0 0 0 3.252 3.252 3.258 3.258 0 0 0 3.251-3.252 3.258 3.258 0 0 0-3.251-3.251zm9.751 3.251c0-1.346.013-2.68-.063-4.025-.076-1.56-.432-2.946-1.573-4.088C16.719.493 15.336.14 13.775.064 12.428-.01 11.094.001 9.75.001 8.404 0 7.07-.011 5.725.064 4.165.14 2.78.496 1.637 1.637.493 2.781.14 4.164.064 5.725-.01 7.072.001 8.406.001 9.75c0 1.344-.012 2.68.063 4.025.076 1.56.432 2.946 1.573 4.088 1.144 1.144 2.527 1.497 4.088 1.573 1.347.076 2.681.063 4.025.063 1.346 0 2.68.013 4.025-.063 1.56-.076 2.946-.432 4.088-1.573 1.144-1.144 1.497-2.527 1.573-4.088.078-1.344.063-2.679.063-4.025zm-9.751 5.003A4.996 4.996 0 0 1 4.745 9.75a4.996 4.996 0 0 1 5.003-5.003A4.996 4.996 0 0 1 14.75 9.75a4.995 4.995 0 0 1-5.002 5.003zm5.207-9.042a1.167 1.167 0 0 1-1.168-1.169c0-.646.522-1.168 1.168-1.168a1.167 1.167 0 0 1 .827 1.995 1.168 1.168 0 0 1-.827.342z" />
  </svg>
  <svg viewBox="0 0 24 24" id="location" xmlns="http://www.w3.org/2000/svg">
    <path d="M0 0h24v24H0z" />
    <path d="M12 8a2.5 2.5 0 1 0 0 5 2.5 2.5 0 0 0 0-5z" />
    <path
      d="M4.5 10.563C4.5 6.387 7.857 3 12 3c4.142 0 7.5 3.387 7.5 7.563C19.5 15.898 13.198 21 12 21c-1.199 0-7.5-5.102-7.5-10.437z" />
  </svg>
  <svg viewBox="0 0 200 39" id="logo" xmlns="http://www.w3.org/2000/svg">
    <path
      d="M184.585 30.758q1.305.572 3.021.572 1.91 0 3.182-.66 1.273-.66 2.094-1.683l.001-.001v1.224q0 .199.076.362.05.109.134.202.051.054.111.095.194.131.477.131h2.602q.185 0 .337-.07.12-.056.219-.156.117-.117.175-.258.059-.14.059-.306V8.36q0-.173-.065-.319-.059-.13-.169-.236-.107-.11-.236-.169-.146-.065-.32-.065h-2.804q-.252 0-.434.113-.079.05-.146.12-.077.084-.126.182-.083.166-.083.375v7.323q-.83-.95-2.071-1.563-1.232-.612-3.013-.612-1.716 0-3.021.596-.876.4-1.559 1.014-.335.301-.624.654l-.002.002q-.869 1.071-1.312 2.487-.443 1.418-.515 3.07-.033.596-.033 1.072 0 .475.033 1.071.072 1.716.531 3.15.46 1.434 1.314 2.498.244.299.524.56.708.66 1.643 1.075zm-65.314.179q.148.063.323.063h2.9q.251 0 .44-.108.084-.048.156-.118.117-.117.176-.258.058-.14.058-.306v-8.185h9.934q.258 0 .447-.115.076-.046.141-.11.117-.118.175-.259.059-.14.059-.306v-2.312q0-.238-.101-.42-.053-.096-.133-.176-.073-.076-.16-.127-.183-.107-.428-.107h-9.934v-6.268h10.586q.307 0 .515-.143.043-.03.082-.066.071-.067.12-.146.113-.182.113-.434V8.723q0-.245-.107-.428-.051-.087-.126-.16-.066-.067-.143-.115-.19-.118-.454-.118h-14.316q-.165 0-.306.058t-.258.175q-.076.073-.127.16-.107.183-.107.428V30.21q0 .165.058.306.059.142.176.258.109.106.241.163zm23.202-.525q1.805.918 4.44.918 2.642 0 4.439-.918 1.178-.605 1.985-1.532.43-.494.754-1.078.943-1.684 1.072-3.932.04-.588.04-1.442 0-.862-.04-1.459-.129-2.28-1.104-3.947-.354-.605-.815-1.111-.811-.89-1.957-1.476-1.796-.926-4.374-.926-2.57 0-4.375.926-1.145.586-1.957 1.476-.461.506-.815 1.11-.966 1.668-1.103 3.948-.033.597-.033 1.459 0 .854.033 1.442.137 2.248 1.071 3.931.34.608.792 1.117.799.902 1.947 1.494zm20.955 0q1.805.918 4.44.918 2.642 0 4.439-.918 1.178-.605 1.985-1.532.43-.494.754-1.078.943-1.684 1.072-3.932.04-.588.04-1.442 0-.862-.04-1.459-.129-2.28-1.104-3.947-.354-.605-.815-1.111-.811-.89-1.957-1.476-1.796-.926-4.374-.926-2.57 0-4.375.926-1.145.586-1.957 1.476-.461.506-.815 1.11-.966 1.668-1.103 3.948-.033.597-.033 1.459 0 .854.033 1.442.137 2.248 1.071 3.931.34.608.792 1.117.799.902 1.947 1.494zm-14.316-2.986q-.868.633-2.199.633-1.311 0-2.178-.62-.289-.207-.529-.483-.951-1.104-1.056-3.247-.032-.5-.032-1.29 0-.789.032-1.288.105-2.143 1.056-3.247.24-.277.529-.484.867-.62 2.178-.62 1.331 0 2.199.634.277.202.508.47.958 1.104 1.055 3.247.032.5.032 1.289 0 .79-.032 1.289-.097 2.143-1.055 3.247-.231.267-.508.47zm20.955 0q-.868.633-2.199.633-1.311 0-2.178-.62-.289-.207-.529-.483-.951-1.104-1.056-3.247-.032-.5-.032-1.29 0-.789.032-1.288.105-2.143 1.056-3.247.24-.277.529-.484.867-.62 2.178-.62 1.331 0 2.199.634.277.202.508.47.958 1.104 1.055 3.247.032.5.032 1.289 0 .79-.032 1.289-.097 2.143-1.055 3.247-.231.267-.508.47zm20.963-.253q-.822.629-2.207.629-1.386 0-2.192-.613-.297-.225-.533-.502-.406-.475-.635-1.101-.363-.991-.435-2.175-.016-.496-.016-.991 0-.496.016-.991.072-1.185.435-2.176.229-.625.635-1.1.236-.277.533-.503.806-.612 2.192-.612 1.321 0 2.143.596.467.336.806.771.264.338.451.736.243.505.361 1.038.092.419.106.855.032.596.032 1.273 0 .677-.032 1.265-.009.275-.044.546-.097.739-.391 1.452-.212.523-.549.946-.291.366-.676.657zM25.135 10.945q.14.058.306.058h3.005q.245 0 .428-.107.087-.05.16-.126.127-.127.185-.28.049-.129.049-.276V7.837q0-.165-.058-.306-.059-.14-.176-.258-.073-.075-.16-.126-.182-.107-.428-.107h-3.005q-.165 0-.306.058t-.258.175q-.106.11-.162.241-.064.148-.064.323v2.377q0 .156.054.292.056.144.172.264.117.117.258.175zM5.462 30.428q2.063.902 5.133.902 2.803 0 4.914-.821 2.11-.83 3.28-2.361.265-.348.47-.728.705-1.302.705-2.986 0-1.95-.83-3.215-.821-1.273-2.602-2.095-1.78-.83-4.584-1.458-1.982-.523-3.19-.983-1.2-.467-1.749-1.08-.145-.165-.252-.352-.288-.507-.288-1.178 0-.815.377-1.379.263-.395.711-.667 1.088-.661 2.868-.661 1.716 0 2.804.725.937.62 1.214 1.459.047.141.075.29.17.362.427.499.266.129.532.129h3.07q.247 0 .41-.118.053-.04.097-.092.12-.141.163-.303.022-.087.022-.18-.032-1.023-.612-2.095-.572-1.071-1.668-2.014-1.087-.943-2.739-1.515-1.644-.58-3.795-.58-2.666 0-4.6.862-1.93.853-2.97 2.332l-.003.005q-.356.508-.59 1.067-.45 1.073-.45 2.333 0 1.982.839 3.27.846 1.282 2.513 2.128 1.668.837 4.141 1.434 2.143.523 3.449 1.007 1.305.475 1.933 1.055.213.196.353.435.276.467.276 1.096 0 .602-.233 1.094-.29.614-.944 1.057-1.168.79-3.544.79-1.491 0-2.466-.395-.967-.395-1.53-1.007-.557-.613-.758-1.24-.161-.267-.379-.444-.217-.185-.644-.185h-2.94q-.155 0-.284.056-.114.05-.208.145-.095.095-.145.209-.057.129-.057.282.012.259.049.513.195 1.342 1.095 2.581 1.072 1.467 3.134 2.377zm82.822.509q.148.063.323.063h2.74q.184 0 .336-.07.12-.056.22-.156.116-.117.175-.258.058-.14.058-.306V8.36q0-.173-.065-.319-.058-.13-.169-.236-.106-.11-.236-.169-.145-.065-.32-.065h-2.739q-.165 0-.306.059-.14.058-.258.175-.11.106-.168.236-.066.146-.066.32v21.85q0 .164.059.305.058.142.175.258.11.106.241.163zm-52.898 0q.148.063.323.063h2.771q.185 0 .337-.07.12-.056.22-.156.116-.117.175-.258.058-.14.058-.306v-9.208q0-1.483.46-2.337.46-.85 1.173-1.23l.019-.01q.607-.325 1.237-.377.122-.01.245-.01.486 0 .937.127.318.09.618.243l.025.013q.708.365 1.16 1.228.459.87.459 2.353v9.208q0 .165.058.306.058.142.175.258.11.106.241.163.148.063.323.063h2.707q.185 0 .337-.07.12-.056.219-.156.117-.117.175-.258.059-.14.059-.306v-9.208q0-1.483.459-2.353.467-.878 1.192-1.24.725-.371 1.45-.371.816 0 1.49.308.066.03.13.062.06.03.117.064.643.371 1.035 1.177.427.87.427 2.353v9.208q0 .165.058.306.059.142.176.258.11.106.24.163.148.063.324.063h2.699q.175 0 .323-.063.13-.057.24-.163.117-.117.176-.258.058-.14.058-.306v-9.474q0-2.441-.814-4.037-.652-1.298-1.696-2.063-.245-.18-.511-.33-.373-.212-.769-.368-1.09-.429-2.349-.429-1.238 0-2.322.408-.447.168-.869.406-1.1.618-1.801 1.539-.213.28-.39.588-.592-1.202-1.55-1.912-1.436-1.068-3.695-1.029-1.62.032-2.795.677-1.169.644-1.861 1.57V14.63q0-.174-.066-.32-.058-.13-.168-.236-.107-.11-.237-.169-.145-.065-.319-.065h-2.57q-.165 0-.306.059-.141.058-.258.175-.11.107-.169.236-.065.146-.065.32v15.58q0 .165.059.306.058.142.175.258.11.106.24.163zM66.62 37.21q.141.058.306.058h2.804q.258 0 .438-.118.073-.048.134-.116.088-.091.14-.2.077-.16.077-.356v-7.492q.158.209.334.402.712.781 1.713 1.298 1.257.644 3.037.644 1.748 0 3.038-.588.956-.442 1.681-1.128.253-.239.478-.507.878-1.048 1.337-2.45.46-1.401.492-3.053.04-.588.04-1.184 0-.597-.04-1.152-.065-1.716-.524-3.134-.46-1.427-1.322-2.466-.264-.321-.57-.597-.682-.614-1.572-.998-1.29-.564-3.038-.564-1.917 0-3.206.693-1.281.693-2.071 1.748v-1.32q0-.196-.077-.355-.052-.11-.14-.201-.067-.071-.146-.12-.182-.114-.435-.114h-2.602q-.165 0-.306.059-.14.058-.258.175-.11.107-.168.236-.066.146-.066.32v21.85q0 .174.066.319.058.13.168.236.117.117.258.176zm33.71-7.313q1.987 1.433 5.007 1.433 1.845 0 3.279-.475 1.442-.483 2.393-1.209.959-.725 1.466-1.482.516-.757.548-1.289.018-.16-.037-.29-.047-.112-.148-.201-.058-.056-.125-.096-.176-.106-.415-.106h-2.836q-.362 0-.548.08-.177.081-.475.484-.169.226-.564.588-.395.363-1.023.645-.628.282-1.547.282-.912 0-1.613-.384-.166-.092-.321-.204-.236-.175-.438-.382-.49-.5-.786-1.19-.411-.974-.443-2.126v-.266h10.957q.238 0 .42-.1.096-.054.176-.134.117-.117.175-.258.059-.14.059-.306v-.693q0-2.57-.927-4.528-.529-1.123-1.348-1.965-.614-.631-1.391-1.104-1.813-1.112-4.488-1.112-2.409 0-4.197.975-.806.44-1.453 1.05-.783.737-1.335 1.721-.999 1.797-1.136 4.31-.032.29-.032.806 0 .508.032.838.159 3.65 2.046 5.733.13.142.266.277.378.372.802.678zm-75.075 1.04q.148.063.323.063h2.74q.27 0 .455-.126.063-.043.116-.1.095-.102.149-.222.069-.155.069-.342V14.63q0-.196-.077-.355-.052-.11-.14-.201-.061-.068-.134-.115-.181-.119-.439-.119h-2.74q-.164 0-.305.059-.141.058-.258.175-.11.107-.169.236-.065.146-.065.32v15.58q0 .165.059.306.058.142.175.258.11.106.24.163zm83.74-10h-7.291v-.105q0-1.28.411-2.255.304-.708.821-1.187.194-.18.419-.328.044-.03.089-.057.795-.49 1.893-.49 1.072 0 1.857.473.06.036.117.074.235.153.437.34.514.476.82 1.175.427.974.427 2.255v.105zm-32.4 6.252q-.79.613-2.216.613-1.314 0-2.144-.597-.457-.331-.794-.757-.27-.34-.462-.741-.25-.534-.365-1.096-.081-.396-.095-.806-.032-.628-.032-1.289 0-.66.032-1.248.019-.296.064-.588.11-.717.38-1.41.195-.492.505-.896.304-.396.72-.708.837-.628 2.19-.628 1.427 0 2.216.612.255.198.466.436.44.497.686 1.167.363.991.427 2.176.02.495.02.99 0 .496-.02.992-.064 1.184-.427 2.175-.245.67-.686 1.168-.21.237-.466.435z"
      fill-rule="evenodd" />
  </svg>
  <svg viewBox="0 0 24 24" id="mail" xmlns="http://www.w3.org/2000/svg">
    <path d="M0 0h24v24H0z" />
    <path d="m17.903 8.851-4.444 3.613c-.84.666-2.02.666-2.86 0L6.12 8.851" />
    <path
      d="M22 15.438V8.57C22 5.5 19.95 3 16.909 3H7.09C4.05 3 2 5.499 2 8.57v6.868C2 18.51 4.05 21.008 7.091 21h9.818C19.95 21.008 22 18.51 22 15.438z" />
  </svg>
  <svg viewBox="0 0 44 44" id="pizza" xmlns="http://www.w3.org/2000/svg">
    <g clip-path="url(#na)">
      <path
        d="M43.745 43.752a.859.859 0 0 1-.892.198L7.159 31.223a4.698 4.698 0 0 1-4.256.338A4.707 4.707 0 0 1 .359 25.42a46.082 46.082 0 0 1 10.038-15.023A46.08 46.08 0 0 1 25.42.358 4.676 4.676 0 0 1 27.213 0a4.71 4.71 0 0 1 4.35 2.902 4.687 4.687 0 0 1-.026 3.65l12.418 36.31a.86.86 0 0 1-.21.89zM12.563 31.325l3.783 1.349a2.186 2.186 0 0 0-.264-3.235 2.176 2.176 0 0 0-1.62-.434 2.177 2.177 0 0 0-1.451.838 2.17 2.17 0 0 0-.448 1.482zM29.974 3.56a2.985 2.985 0 0 0-3.896-1.614C15.075 6.504 6.505 15.074 1.947 26.077a2.963 2.963 0 0 0 0 2.282 2.963 2.963 0 0 0 1.614 1.614 2.963 2.963 0 0 0 2.282 0 2.963 2.963 0 0 0 1.614-1.613 38.432 38.432 0 0 1 8.373-12.531 38.433 38.433 0 0 1 12.53-8.373 2.985 2.985 0 0 0 1.614-3.896zm7.635 26.06a2.176 2.176 0 0 0-1.685.855 2.176 2.176 0 0 0-.434 1.62 2.193 2.193 0 0 0 2.458 1.885 2.19 2.19 0 0 0 1.012-.41l-1.35-3.95zm1.922 5.621a3.91 3.91 0 1 1-2.493-7.29l-1.708-4.995-1.964 1.507a.86.86 0 0 1-1.047-1.364l2.424-1.86-4.442-12.99a4.68 4.68 0 0 1-1.282.795C19.91 12.816 12.817 19.91 9.044 29.017a4.63 4.63 0 0 1-.482.882l2.301.82a3.88 3.88 0 0 1 .783-1.922 3.883 3.883 0 0 1 2.591-1.496 3.88 3.88 0 0 1 2.89.774 3.884 3.884 0 0 1 1.496 2.591 3.9 3.9 0 0 1-.581 2.613l10.682 3.809.405-.978a.86.86 0 0 1 1.588.658l-.372.898 11.406 4.066-2.22-6.491z" />
      <path
        d="M9.281 20.945zM7.974 23.08a40.678 40.678 0 0 0-2.237 4.567.86.86 0 1 1-1.588-.657 42.391 42.391 0 0 1 2.332-4.761.86.86 0 1 1 1.493.851zm18.919 9.921a3.918 3.918 0 0 1-4.386-3.365 3.914 3.914 0 0 1 3.88-4.42 3.918 3.918 0 0 1 3.871 3.4A3.914 3.914 0 0 1 26.893 33zm1.661-4.161a2.195 2.195 0 0 0-2.458-1.886 2.193 2.193 0 0 0-1.885 2.457 2.194 2.194 0 0 0 2.457 1.886 2.193 2.193 0 0 0 1.886-2.457zm-1.885-6.528a3.918 3.918 0 0 1-4.386-3.365 3.883 3.883 0 0 1 .774-2.891 3.884 3.884 0 0 1 3.105-1.53 3.918 3.918 0 0 1 3.872 3.4 3.914 3.914 0 0 1-3.365 4.386zm1.661-4.162a2.195 2.195 0 0 0-2.457-1.886 2.178 2.178 0 0 0-1.452.838 2.176 2.176 0 0 0-.434 1.62 2.195 2.195 0 0 0 2.458 1.886 2.193 2.193 0 0 0 1.885-2.458zm-7.329 7.722-2.641.348a.86.86 0 1 1-.225-1.704l2.641-.348a.86.86 0 0 1 .225 1.704zm-1.339-6.342-.234 1.772a.86.86 0 1 1-1.704-.224l.234-1.773a.86.86 0 1 1 1.704.225z" />
    </g>
  </svg>
  <svg viewBox="0 0 34 34" id="restaurant" xmlns="http://www.w3.org/2000/svg">
    <g clip-path="url(#oa)">
      <path
        d="M32.406 28.156h-3.718V17.484a2.31 2.31 0 0 0 1.69-3.092l-1.69-4.397V1.594a.531.531 0 0 0-.532-.532H5.844a.53.53 0 0 0-.532.532v8.4l-1.69 4.398a2.31 2.31 0 0 0 1.69 3.092v10.672H1.595a.531.531 0 0 0-.532.532v3.718a.531.531 0 0 0 .532.532h30.812a.532.532 0 0 0 .532-.532v-3.718a.53.53 0 0 0-.532-.532zm-5.843 0v-11.33c.29.3.658.517 1.062.625v10.705h-1.063zm-4.25.532v3.187h-2.125v-3.719h1.062a.53.53 0 0 0 .531-.531v-1.594a.531.531 0 0 0-.531-.531h-3.188a.531.531 0 0 0-.53.531v1.594a.53.53 0 0 0 .53.531h1.063v3.719H17v-3.188a.53.53 0 0 0-.531-.53h-1.063v-1.595a.529.529 0 0 0-.531-.53h-1.063v-8.55a2.309 2.309 0 0 0 1.313-.79 2.288 2.288 0 0 0 1.781.84h.188a2.288 2.288 0 0 0 1.78-.84c.077.092.161.178.251.258v1.644a2.659 2.659 0 0 0-2.656 2.656.529.529 0 0 0 .531.531h5.313a.529.529 0 0 0 .53-.531 2.66 2.66 0 0 0-2.655-2.656v-1.111c.154.032.311.048.469.048h.166a2.306 2.306 0 0 0 1.802-.864 2.302 2.302 0 0 0 1.805.864h.102c.334 0 .664-.07.968-.21v8.71h-1.063a.53.53 0 0 0-.53.532v1.593h-1.063a.532.532 0 0 0-.532.532zm-3.72-1.594v-.532h2.126v.532h-2.125zM8.264 14.893l1.173-4.268h2.156l-.79 4.8a1.243 1.243 0 0 1-1.232 1.044h-.102a1.25 1.25 0 0 1-1.204-1.576zM8.5 17.32c.304.14.634.21.968.21h.102a2.3 2.3 0 0 0 1.805-.864 2.306 2.306 0 0 0 1.375.825v2.695H8.5V17.32zm4.677-.852a1.25 1.25 0 0 1-1.231-1.451l.724-4.393h2.175l-.256 4.664a1.248 1.248 0 0 1-1.246 1.18h-.166zm4.822-.39a1.237 1.237 0 0 1-.905.39h-.188a1.25 1.25 0 0 1-1.245-1.313l.248-4.531h2.182l.248 4.528v.003a1.233 1.233 0 0 1-.34.923zm1.412-.79-.256-4.664h2.175l.724 4.393a1.248 1.248 0 0 1-1.231 1.45h-.166a1.248 1.248 0 0 1-1.246-1.179zm.776 4.367a1.597 1.597 0 0 1 1.503 1.063h-4.068a1.597 1.597 0 0 1 1.503-1.063h1.063zm5.338-3.679a1.239 1.239 0 0 1-.992.492h-.104a1.244 1.244 0 0 1-1.23-1.045l-.792-4.799h2.157l1.172 4.265v.003a1.24 1.24 0 0 1-.211 1.084zm-.556 11.117h.531v1.062h-.531v-1.062zm4.418-12.321a1.247 1.247 0 1 1-2.368.779l-1.354-4.927h2.127l1.595 4.148zM6.375 2.125h21.25v7.438H6.375V2.125zM4.749 15.928a1.231 1.231 0 0 1-.136-1.155l1.595-4.148h2.127L6.98 15.552a1.252 1.252 0 0 1-1.785.775 1.231 1.231 0 0 1-.447-.4zm1.626 1.523a2.305 2.305 0 0 0 1.063-.626v11.331H6.375V17.452zm4.25 14.424h-8.5v-2.656h8.5v2.656zm.531-3.719H8.5V21.25h4.25v10.625h-1.063v-3.188a.53.53 0 0 0-.53-.53zm2.656-1.062h.532v1.593a.529.529 0 0 0 .531.532h1.063v2.656h-2.126v-4.781zm18.063 4.781h-8.5v-2.656h8.5v2.656z" />
      <path
        d="M20.719 6.375h-.577a3.195 3.195 0 0 0-2.61-2.611v-.576a.53.53 0 1 0-1.063 0v.576a3.194 3.194 0 0 0-2.611 2.611h-.577a.531.531 0 0 0-.531.531 2.127 2.127 0 0 0 2.125 2.125h4.25a2.127 2.127 0 0 0 2.125-2.125.531.531 0 0 0-.531-.531zM17 4.781a2.129 2.129 0 0 1 2.058 1.594h-4.116A2.129 2.129 0 0 1 17 4.781zm2.125 3.188h-4.25a1.063 1.063 0 0 1-.92-.532h6.09a1.064 1.064 0 0 1-.92.532zm-6.08-2.746a.531.531 0 0 0 .236-.442V3.188H12.22v1.29a2.339 2.339 0 0 1-.531.194V3.188h-1.063v1.484a2.336 2.336 0 0 1-.531-.194v-1.29H9.03V4.78a.531.531 0 0 0 .237.442c.409.273.872.454 1.357.531V9.03h1.063V5.754a3.406 3.406 0 0 0 1.357-.53zm9.799-2.567a2.125 2.125 0 0 0-.532 4.183v2.192h1.063V6.84a2.125 2.125 0 0 0-.531-4.183zm0 3.188a1.062 1.062 0 1 1 0-2.125 1.062 1.062 0 0 1 0 2.125z" />
    </g>
  </svg>
  <svg viewBox="0 0 44 44" id="sandwich" xmlns="http://www.w3.org/2000/svg">
    <g clip-path="url(#pa)">
      <path
        d="M41.8 6.6h-1.467V5.133a2.2 2.2 0 0 0-2.2-2.2h-1.747L35.326.811A1.457 1.457 0 0 0 34.012 0H33c-.81 0-1.467.656-1.467 1.467v1.466h-8.066a2.2 2.2 0 0 0-2.2 2.2V6.6H19.8a2.2 2.2 0 0 0-2.2 2.2v1.467c0 .81.657 1.466 1.467 1.466h.077l.858 7.577-3.533-.83a11.127 11.127 0 0 0-.576-.813L14.646 12.3a.733.733 0 0 0-.713-.568H9.72C7.73 9.981 5.382 9.19 3.61 9.711L2.532 8.537a1.448 1.448 0 0 0-1.605-.366c-.56.215-.93.755-.928 1.355v32.289A2.188 2.188 0 0 0 2.185 44h35.948c.373 0 .686-.28.728-.65l3.593-31.617h.08c.81 0 1.466-.657 1.466-1.466V8.8a2.2 2.2 0 0 0-2.2-2.2zM33 1.467h1.013l.734 1.466H33V1.467zM22.733 5.133c0-.405.329-.733.734-.733h14.666c.405 0 .733.328.733.733V6.6H22.734V5.133zm-2.053 15.84.046.009.593.14.397 4.162a6.76 6.76 0 0 0-3.94-1.242 6.28 6.28 0 0 0-.411-3.848l3.315.78zm1.433 6.487.01.008c.265.245.517.505.755.779a8.684 8.684 0 0 1 1.876 3.387c.124.437.188.89.19 1.344l-6.85-7.47c1.524.17 2.943.86 4.019 1.952zm-7.728-9.32v-.002c1.583 1.819 2.32 4.003 1.97 5.472l-7.463-8.137c1.505-.336 3.795.721 5.493 2.667zm-1.038-4.94.586 2.497a9.347 9.347 0 0 0-1.913-1.154 11.54 11.54 0 0 0-.928-1.343h2.255zm-3.687.546h.003c.061.07.11.146.17.22a3.992 3.992 0 0 0-2.012.338l-3.015-3.288c1.474.021 3.398 1.058 4.854 2.73zm21.077 28.356a.717.717 0 0 1-.656.431H2.185a.719.719 0 0 1-.718-.718L1.453 9.533l14.72 16.048v.004l8.644 9.424.01.011 4.74 5.172c.018.022.035.044.055.065l.983 1.072a.716.716 0 0 1 .132.773zm-4.54-7.757a4.61 4.61 0 0 0 .203-1.352c.385.325.744.68 1.074 1.061.41.469.773.975 1.086 1.513.428.72.73 1.507.895 2.329l-3.257-3.551zm11.281 8.188h-5.342c.275-.76.1-1.61-.45-2.2l-.74-.806a6.692 6.692 0 0 0-.571-3.594h7.854l-.75 6.6zm.917-8.066h-8.8a11.218 11.218 0 0 0-1.009-1.375 10.682 10.682 0 0 0-2.512-2.136 10.145 10.145 0 0 0-2.09-3.676c-.22-.25-.44-.482-.671-.706l-.58-6.11a.733.733 0 0 0-.56-.644l-.65-.154-.154-1.333h18.86l-1.834 16.134zm2-17.6H21.203l-.58-5.134H40.98l-.583 5.134zm2.138-6.6H19.067V8.8c0-.405.328-.733.733-.733h22c.405 0 .733.328.733.733v1.467z" />
      <path
        d="M31.1 32.267c.042 0 .083-.006.124-.008.011 0 .023.008.034.008a.704.704 0 0 0 .109-.016 3.967 3.967 0 0 0 2.899-1.567 5.101 5.101 0 0 0 .714-4.475c-.102-.38-.195-.753-.285-1.113-.572-2.293-1.119-4.456-3.435-4.553-.024 0-.046-.004-.07-.004-.023 0-.057-.006-.09-.006-2.591 0-4.7 2.632-4.7 5.867s2.109 5.867 4.7 5.867zm.568-10.157c.758.298 1.092 1.291 1.604 3.341.092.367.187.751.293 1.14a3.656 3.656 0 0 1-.464 3.2 2.592 2.592 0 0 1-.876.734 10.657 10.657 0 0 0-.733-3.68c-.073-.23-.147-.45-.211-.66-.427-1.389.073-3.188.387-4.075zm-1.576.11a8.05 8.05 0 0 0-.212 4.393c.068.22.143.448.22.685.367 1.12.807 2.472.627 3.468-1.607-.25-2.86-2.112-2.86-4.366 0-1.947.935-3.6 2.225-4.18zM3.881 38.563l-.518.518A.733.733 0 1 0 4.4 40.118l.518-.518a.733.733 0 0 0-1.037-1.037zm7.012-4.937a.734.734 0 0 0-1.038-1.037l-.518.518a.733.733 0 1 0 1.037 1.038l.519-.519zM4.4 31.748l-.519.519a.733.733 0 1 0 1.037 1.037l.519-.519A.733.733 0 0 0 4.4 31.748zm0-5.133-.519.518a.734.734 0 1 0 1.037 1.037l.519-.518A.733.733 0 0 0 4.4 26.615zM11 38.563l-.518.518a.733.733 0 1 0 1.036 1.037l.519-.518A.733.733 0 0 0 11 38.563zm5.348 0-.518.518a.734.734 0 1 0 1.037 1.037l.518-.518a.733.733 0 0 0-1.037-1.037z" />
    </g>
  </svg>
  <svg viewBox="0 0 20.267 20.502" id="search" xmlns="http://www.w3.org/2000/svg">
    <ellipse cx="9.739" cy="9.634" rx="8.989" ry="8.884" />
    <path d="m15.99 16.275 3.524 3.474" />
  </svg>
  <svg viewBox="0 0 14.445 13.649" id="telegram" xmlns="http://www.w3.org/2000/svg">
    <path
      d="M8.942 13.65a.694.694 0 0 1-.616-.36L6.285 9.432a.622.622 0 0 1 .05-.661L9.63 4.55 5.162 7.663a.725.725 0 0 1-.7.047L.38 5.78a.647.647 0 0 1-.379-.617.653.653 0 0 1 .449-.574L13.519.04a.719.719 0 0 1 .724.15c.19.179.252.446.16.684l-4.816 12.35a.684.684 0 0 1-.607.424l-.038.001z" />
  </svg>
  <svg viewBox="0 0 34 34" id="timer" xmlns="http://www.w3.org/2000/svg">
    <g clip-path="url(#sa)">
      <path
        d="m31.754 12.881.996-.996c.288-.288.447-.67.447-1.078 0-.407-.159-.79-.447-1.077l-1.14-1.141a1.514 1.514 0 0 0-1.078-.447c-.407 0-.79.159-1.078.447l-.996.996a12.7 12.7 0 0 0-4.412-1.933V6.179h.606a1.49 1.49 0 0 0 1.488-1.488v-2.07a1.49 1.49 0 0 0-1.488-1.488H17.8a1.49 1.49 0 0 0-1.488 1.488v2.07c0 .82.668 1.488 1.488 1.488h.606v1.477a12.703 12.703 0 0 0-4.392 1.929l-.996-.996a1.514 1.514 0 0 0-1.078-.447c-.407 0-.79.159-1.078.447l-1.14 1.14a1.526 1.526 0 0 0 0 2.156l.176.177H5.19a.664.664 0 0 0 0 1.328h5.193a12.712 12.712 0 0 0-1.215 2.552H.664a.664.664 0 0 0 0 1.328H8.79a12.748 12.748 0 0 0-.314 2.553H4.25a.664.664 0 0 0 0 1.328h4.265c.072.879.233 1.733.474 2.553H3.32a.664.664 0 0 0 0 1.328h6.142c1.932 4.598 6.482 7.836 11.774 7.836C28.274 32.868 34 27.142 34 20.103c0-2.678-.83-5.167-2.246-7.222zm-1.36-3.353a.192.192 0 0 1 .138-.057c.037 0 .091.01.139.057l1.14 1.14a.192.192 0 0 1 .058.14.19.19 0 0 1-.058.138l-.873.873c-.435-.509-.91-.983-1.418-1.418l.873-.873zM17.64 4.691v-2.07a.16.16 0 0 1 .16-.16h6.852a.16.16 0 0 1 .16.16v2.07a.16.16 0 0 1-.16.16H17.8a.16.16 0 0 1-.16-.16zm2.095 1.489h2.983v1.246a12.846 12.846 0 0 0-2.983.002V6.18zm-9.075 4.489 1.141-1.141a.193.193 0 0 1 .139-.058c.037 0 .091.01.139.058l.873.873c-.51.435-.983.91-1.418 1.418l-.874-.873a.196.196 0 0 1 0-.277zm10.576 20.87C14.93 31.54 9.8 26.41 9.8 20.103S14.93 8.667 21.236 8.667s11.436 5.13 11.436 11.436-5.13 11.436-11.436 11.436z" />
      <path
        d="m25.619 14.781-3.14 3.14a2.499 2.499 0 0 0-1.243-.331 2.517 2.517 0 0 0-2.514 2.513 2.517 2.517 0 0 0 2.514 2.514 2.517 2.517 0 0 0 2.514-2.514c0-.452-.121-.877-.331-1.244l3.139-3.139a.664.664 0 0 0-.94-.939zm-4.383 6.508a1.187 1.187 0 0 1-1.186-1.186 1.187 1.187 0 0 1 2.371 0c0 .654-.531 1.186-1.185 1.186zm0-9.795a.669.669 0 0 0 .47-.195.67.67 0 0 0 .194-.47.669.669 0 0 0-.194-.469.669.669 0 0 0-.47-.194.67.67 0 0 0-.47.194.668.668 0 0 0 .47 1.134zm0 17.219a.67.67 0 0 0-.47.194.668.668 0 0 0 .47 1.134.666.666 0 0 0 .47-1.134.669.669 0 0 0-.47-.194zm-6.558-15.832a.67.67 0 0 0-.47.195.67.67 0 0 0-.194.47.67.67 0 0 0 .195.47.669.669 0 0 0 .939 0 .67.67 0 0 0 .194-.47.669.669 0 0 0-.664-.664zm13.116 13.116a.67.67 0 0 0-.47.194.668.668 0 0 0 0 .94.668.668 0 0 0 1.134-.47.669.669 0 0 0-.664-.664zm-13.116 0a.669.669 0 0 0-.47.194.669.669 0 0 0-.194.47.669.669 0 0 0 .664.664.668.668 0 0 0 .664-.664.669.669 0 0 0-.664-.664zm-2.715-6.558a.668.668 0 0 0-.665.664.667.667 0 0 0 .665.664.666.666 0 0 0 .664-.664.669.669 0 0 0-.195-.47.669.669 0 0 0-.47-.194zm19.016.195a.668.668 0 0 0-1.133.47.668.668 0 0 0 .663.663.67.67 0 0 0 .47-.194.67.67 0 0 0 .195-.47.67.67 0 0 0-.195-.47zM.664 23.704a.668.668 0 0 0-.47.194.67.67 0 0 0-.194.47.67.67 0 0 0 .195.47.669.669 0 0 0 .47.194.669.669 0 0 0 .468-.195.67.67 0 0 0 .195-.47.67.67 0 0 0-.195-.47.668.668 0 0 0-.469-.193z" />
      <path
        d="M30.314 18.087a.664.664 0 0 0 .447-.826 9.963 9.963 0 0 0-6.704-6.69.664.664 0 0 0-.376 1.274 8.576 8.576 0 0 1 5.807 5.795.664.664 0 0 0 .826.447z" />
    </g>
  </svg>
  <svg viewBox="0 0 20.526 16.675" id="twitter" xmlns="http://www.w3.org/2000/svg">
    <path
      d="M20.526 1.981a8.442 8.442 0 0 1-2.422.651 4.196 4.196 0 0 0 1.85-2.319 8.303 8.303 0 0 1-2.67 1.017A4.197 4.197 0 0 0 14.212 0a4.205 4.205 0 0 0-4.206 4.208c0 .326.04.652.104.965A11.954 11.954 0 0 1 1.436.77a4.176 4.176 0 0 0-.573 2.124 4.21 4.21 0 0 0 1.875 3.505 4.243 4.243 0 0 1-1.902-.535v.052a4.207 4.207 0 0 0 3.372 4.129 4.46 4.46 0 0 1-1.107.143 5.61 5.61 0 0 1-.795-.064 4.214 4.214 0 0 0 3.933 2.918 8.43 8.43 0 0 1-5.223 1.798c-.352 0-.678-.012-1.016-.051a11.912 11.912 0 0 0 6.46 1.886c7.737 0 11.97-6.408 11.97-11.97 0-.183 0-.366-.013-.549a9.06 9.06 0 0 0 2.11-2.175z" />
  </svg>
</svg>