<svg width="44" height="44" fill="none" xmlns="http://www.w3.org/2000/svg">
  <defs>
    <clipPath id="a">
      <path transform="matrix(1 0 0 -1 0 44)" fill="#fff" fill-opacity="0" d="M0 0h44v44H0z" />
    </clipPath>
  </defs>
  <path d="M0 44h44V0H0z" />
  <g clip-path="url(#a)" fill="#363853">
    <path
      d="M43.745 43.752a.859.859 0 01-.892.198L7.159 31.223a4.698 4.698 0 01-4.256.338A4.707 4.707 0 01.359 25.42a46.082 46.082 0 0110.038-15.023A46.08 46.08 0 0125.42.358 4.676 4.676 0 0127.213 0a4.71 4.71 0 014.35 2.902 4.687 4.687 0 01-.026 3.65l12.418 36.31a.86.86 0 01-.21.89zM12.563 31.325l3.783 1.349a2.186 2.186 0 00-.264-3.235 2.176 2.176 0 00-1.62-.434 2.177 2.177 0 00-1.451.838 2.17 2.17 0 00-.448 1.482zM29.974 3.56a2.985 2.985 0 00-3.896-1.614C15.075 6.504 6.505 15.074 1.947 26.077a2.963 2.963 0 000 2.282 2.963 2.963 0 001.614 1.614 2.963 2.963 0 002.282 0 2.963 2.963 0 001.614-1.613 38.432 38.432 0 018.373-12.531 38.433 38.433 0 0112.53-8.373 2.985 2.985 0 001.614-3.896zm7.635 26.06a2.176 2.176 0 00-1.685.855 2.176 2.176 0 00-.434 1.62 2.193 2.193 0 002.458 1.885 2.19 2.19 0 001.012-.41l-1.35-3.95zm1.922 5.621a3.91 3.91 0 11-2.493-7.29l-1.708-4.995-1.964 1.507a.86.86 0 01-1.047-1.364l2.424-1.86-4.442-12.99a4.68 4.68 0 01-1.282.795C19.91 12.816 12.817 19.91 9.044 29.017a4.63 4.63 0 01-.482.882l2.301.82a3.88 3.88 0 01.783-1.922 3.883 3.883 0 012.591-1.496 3.88 3.88 0 012.89.774 3.884 3.884 0 011.496 2.591 3.9 3.9 0 01-.581 2.613l10.682 3.809.405-.978a.86.86 0 011.588.658l-.372.898 11.406 4.066-2.22-6.491z" />
    <path
      d="M9.281 20.945zM7.974 23.08a40.678 40.678 0 00-2.237 4.567.86.86 0 11-1.588-.657 42.391 42.391 0 012.332-4.761.86.86 0 111.493.851zm18.919 9.921a3.918 3.918 0 01-4.386-3.365 3.914 3.914 0 013.88-4.42 3.918 3.918 0 013.871 3.4A3.914 3.914 0 0126.893 33zm1.661-4.161a2.195 2.195 0 00-2.458-1.886 2.193 2.193 0 00-1.885 2.457 2.194 2.194 0 002.457 1.886 2.193 2.193 0 001.886-2.457zm-1.885-6.528a3.918 3.918 0 01-4.386-3.365 3.883 3.883 0 01.774-2.891 3.884 3.884 0 013.105-1.53 3.918 3.918 0 013.872 3.4 3.914 3.914 0 01-3.365 4.386zm1.661-4.162a2.195 2.195 0 00-2.457-1.886 2.178 2.178 0 00-1.452.838 2.176 2.176 0 00-.434 1.62 2.195 2.195 0 002.458 1.886 2.193 2.193 0 001.885-2.458zm-7.329 7.722l-2.641.348a.86.86 0 11-.225-1.704l2.641-.348a.86.86 0 01.225 1.704zm-1.339-6.342l-.234 1.772a.86.86 0 11-1.704-.224l.234-1.773a.86.86 0 111.704.225z" />
  </g>
</svg>