<svg width="20.001" height="19.333" fill="none" xmlns="http://www.w3.org/2000/svg">
  <path
    d="M.75.75l2.08.356.964 11.34c.077.926.86 1.637 1.8 1.634h10.909a1.794 1.794 0 001.785-1.528l.949-6.482a1.328 1.328 0 00-1.135-1.501c-.064-.01-14.937-.014-14.937-.014m8.961 3.653h2.773"
    stroke="#363853" stroke-width="1.5" stroke-linejoin="round" stroke-linecap="round" />
  <path
    d="M5.699 18.044c0 .298-.243.54-.544.54a.541.541 0 01-.544-.54.54.54 0 01.544-.538.54.54 0 01.544.538zm11.281 0c0 .298-.244.54-.545.54a.541.541 0 01-.544-.54.54.54 0 01.544-.538c.301 0 .545.242.545.538z"
    stroke="#363853" stroke-width="1.5" stroke-linejoin="round" />
</svg>