<svg width="20.526" height="16.676" viewBox="0 0 20.526 16.675" fill="none" xmlns="http://www.w3.org/2000/svg"><path d="M20.526 1.981a8.442 8.442 0 01-2.422.651 4.196 4.196 0 001.85-2.319 8.303 8.303 0 01-2.67 1.017A4.197 4.197 0 0014.212 0a4.205 4.205 0 00-4.206 4.208c0 .326.04.652.104.965A11.954 11.954 0 011.436.77a4.176 4.176 0 00-.573 2.124 4.21 4.21 0 001.875 3.505 4.243 4.243 0 01-1.902-.535v.052a4.207 4.207 0 003.372 4.129 4.46 4.46 0 01-1.107.143 5.61 5.61 0 01-.795-.064 4.214 4.214 0 003.933 2.918 8.43 8.43 0 01-5.223 1.798c-.352 0-.678-.012-1.016-.051a11.912 11.912 0 006.46 1.886c7.737 0 11.97-6.408 11.97-11.97 0-.183 0-.366-.013-.549a9.06 9.06 0 002.11-2.175z" fill="#31352B"/></svg>