<svg width="44.000000" height="38.671875" viewBox="0 0 44 38.6719" fill="none" xmlns="http://www.w3.org/2000/svg" xmlns:xlink="http://www.w3.org/1999/xlink">
	<desc>
			Created with Pixso.
	</desc>
	<defs/>
	<path id="Vector" d="M44 19.3359C44 17.6467 42.9108 16.2079 41.3982 15.6825C41.1658 10.4418 39.2092 6.41992 35.573 3.71729C32.2543 1.25061 27.6878 0 22 0C16.3122 0 11.7457 1.25061 8.42703 3.71729C4.79083 6.41992 2.83423 10.4418 2.60175 15.6826C1.08917 16.2079 0 17.6467 0 19.3359C0 20.3257 0.374176 21.2294 0.987854 21.9141C0.374176 22.5988 0 23.5024 0 24.4922C0 26.1918 1.10257 27.6378 2.62961 28.1552C3.18253 34.0454 8.18967 38.6719 14.2656 38.6719L29.7344 38.6719C35.8103 38.6719 40.8175 34.0454 41.3704 28.1552C42.8974 27.6378 44 26.1918 44 24.4922C44 23.5024 43.6258 22.5988 43.0121 21.9141C43.6258 21.2294 44 20.3257 44 19.3359ZM22 2.57812C29.3933 2.57812 38.1513 4.85718 38.8034 15.4688L5.19656 15.4688C5.84872 4.85718 14.6067 2.57812 22 2.57812ZM3.86719 18.0469L40.1328 18.0469C40.8436 18.0469 41.4219 18.6251 41.4219 19.3359C41.4219 20.0468 40.8436 20.625 40.1328 20.625L3.86719 20.625C3.1564 20.625 2.57812 20.0468 2.57812 19.3359C2.57812 18.6251 3.1564 18.0469 3.86719 18.0469ZM29.7344 36.0938L14.2656 36.0938C9.68457 36.0938 5.88303 32.7264 5.24957 28.3594L6.44531 28.3594C7.3071 28.3594 7.57944 28.6525 8.12186 29.2366C8.78857 29.9545 9.70166 30.9375 11.6875 30.9375C13.6873 30.9375 14.5766 29.9445 15.226 29.2192C15.7387 28.6467 15.996 28.3594 16.8438 28.3594C17.6915 28.3594 17.9488 28.6467 18.4615 29.2192C19.1109 29.9445 20.0002 30.9375 22 30.9375C23.9998 30.9375 24.8891 29.9445 25.5385 29.2192C26.0512 28.6467 26.3085 28.3594 27.1562 28.3594C28.004 28.3594 28.2613 28.6467 28.774 29.2192C29.4234 29.9445 30.3127 30.9375 32.3125 30.9375C34.3123 30.9375 35.2016 29.9445 35.851 29.2192C36.3637 28.6467 36.621 28.3594 37.4688 28.3594L38.7504 28.3594C38.117 32.7264 34.3154 36.0938 29.7344 36.0938ZM40.1328 25.7812L37.4688 25.7812C35.4689 25.7812 34.5796 26.7743 33.9303 27.4995C33.4176 28.072 33.1603 28.3594 32.3125 28.3594C31.4647 28.3594 31.2074 28.072 30.6947 27.4995C30.0454 26.7743 29.1561 25.7812 27.1562 25.7812C25.1564 25.7812 24.2671 26.7743 23.6178 27.4995C23.1051 28.072 22.8478 28.3594 22 28.3594C21.1522 28.3594 20.8949 28.072 20.3822 27.4995C19.7329 26.7743 18.8436 25.7812 16.8438 25.7812C14.8439 25.7812 13.9546 26.7743 13.3053 27.4995C12.7926 28.072 12.5353 28.3594 11.6875 28.3594C10.8257 28.3594 10.5534 28.0663 10.011 27.4822C9.34424 26.7643 8.43115 25.7812 6.44531 25.7812L3.86719 25.7812C3.1564 25.7812 2.57812 25.203 2.57812 24.4922C2.57812 23.7814 3.1564 23.2031 3.86719 23.2031L40.1328 23.2031C40.8436 23.2031 41.4219 23.7814 41.4219 24.4922C41.4219 25.203 40.8436 25.7812 40.1328 25.7812Z" fill="#FFFFFF" fill-opacity="1.000000" fill-rule="nonzero"/>
</svg>
